<?xml version="1.0" ?><svg viewBox="0 0 32 32" xmlns="http://www.w3.org/2000/svg"><title/><g data-name="messenger message fb facebook" id="messenger_message_fb_facebook"><path d="M16,3C8.83,3,3,8.38,3,15a11.26,11.26,0,0,0,2.17,6.63A1,1,0,1,0,6.8,20.46,9.23,9.23,0,0,1,5,15C5,9.49,9.93,5,16,5S27,9.49,27,15,22.07,25,16,25a11.92,11.92,0,0,1-3.36-.48,1,1,0,0,0-.88.16L10,26V23.92a1,1,0,0,0-2,0V28a1,1,0,0,0,.55.89,1,1,0,0,0,1-.09l3-2.23A13.66,13.66,0,0,0,16,27c7.17,0,13-5.38,13-12S23.17,3,16,3Z"/><path d="M8.45,19.89l5.35-2.67L15.59,19a2,2,0,0,0,2.82,0l6.3-6.29a1,1,0,0,0-1.16-1.6L18.2,13.78,16.41,12a2,2,0,0,0-2.82,0l-6.3,6.29A1,1,0,0,0,8,20,.93.93,0,0,0,8.45,19.89ZM15,13.41l2.29,2.3,0,0a.62.62,0,0,0,.17.11.51.51,0,0,0,.16.09l.17,0a.68.68,0,0,0,.2,0,1,1,0,0,0,.17,0,.56.56,0,0,0,.21-.06h0l.49-.24L17,17.59l-2.29-2.3,0,0a1.22,1.22,0,0,0-.19-.12.71.71,0,0,0-.15-.08l-.18,0A.65.65,0,0,0,14,15a1,1,0,0,0-.17,0,.56.56,0,0,0-.21.06h0l-.49.24Z"/></g></svg>